<svg width="1008" height="1024" viewBox="0 0 1008 1024" fill="none" xmlns="http://www.w3.org/2000/svg">
<g filter="url(#filter0_iii_125_70)">
<path d="M66.7529 828.539C27.4943 921.267 95.5606 1024 196.257 1024C265.853 1024 324.983 973.094 335.327 904.271L348.493 816.673C353.489 783.436 382.045 758.852 415.655 758.852C449.266 758.852 477.821 783.436 482.817 816.673L495.435 900.625C506.095 971.544 567.024 1024 638.74 1024C742.845 1024 812.989 917.496 771.874 821.853L573.729 360.93C547.187 299.188 486.434 259.176 419.229 259.176C351.687 259.176 290.698 299.585 264.365 361.782L66.7529 828.539Z" fill="white"/>
<path d="M66.7529 828.539C27.4943 921.267 95.5606 1024 196.257 1024C265.853 1024 324.983 973.094 335.327 904.271L348.493 816.673C353.489 783.436 382.045 758.852 415.655 758.852C449.266 758.852 477.821 783.436 482.817 816.673L495.435 900.625C506.095 971.544 567.024 1024 638.74 1024C742.845 1024 812.989 917.496 771.874 821.853L573.729 360.93C547.187 299.188 486.434 259.176 419.229 259.176C351.687 259.176 290.698 299.585 264.365 361.782L66.7529 828.539Z" fill="url(#paint0_linear_125_70)"/>
</g>
<g filter="url(#filter1_iiii_125_70)">
<path d="M781.961 253.783V823.901L582.375 360.549C576.264 346.363 568.736 332.831 559.905 320.159V253.783H451.796C381.716 253.783 324.904 196.972 324.904 126.892C324.904 56.8114 381.716 0 451.796 0H881.108C951.188 0 1008 56.8114 1008 126.892C1008 196.972 951.188 253.783 881.108 253.783H781.961Z" fill="white"/>
<path d="M781.961 253.783V823.901L582.375 360.549C576.264 346.363 568.736 332.831 559.905 320.159V253.783H451.796C381.716 253.783 324.904 196.972 324.904 126.892C324.904 56.8114 381.716 0 451.796 0H881.108C951.188 0 1008 56.8114 1008 126.892C1008 196.972 951.188 253.783 881.108 253.783H781.961Z" fill="url(#paint1_linear_125_70)"/>
</g>
<defs>
<filter id="filter0_iii_125_70" x="55.4756" y="259.176" width="750.335" height="790.824" filterUnits="userSpaceOnUse" color-interpolation-filters="sRGB">
<feFlood flood-opacity="0" result="BackgroundImageFix"/>
<feBlend mode="normal" in="SourceGraphic" in2="BackgroundImageFix" result="shape"/>
<feColorMatrix in="SourceAlpha" type="matrix" values="0 0 0 0 0 0 0 0 0 0 0 0 0 0 0 0 0 0 127 0" result="hardAlpha"/>
<feOffset dx="22" dy="26"/>
<feGaussianBlur stdDeviation="50"/>
<feComposite in2="hardAlpha" operator="arithmetic" k2="-1" k3="1"/>
<feColorMatrix type="matrix" values="0 0 0 0 0.299755 0 0 0 0 0.3229 0 0 0 0 0.531212 0 0 0 0.76 0"/>
<feBlend mode="normal" in2="shape" result="effect1_innerShadow_125_70"/>
<feColorMatrix in="SourceAlpha" type="matrix" values="0 0 0 0 0 0 0 0 0 0 0 0 0 0 0 0 0 0 127 0" result="hardAlpha"/>
<feOffset dx="10" dy="3"/>
<feGaussianBlur stdDeviation="50"/>
<feComposite in2="hardAlpha" operator="arithmetic" k2="-1" k3="1"/>
<feColorMatrix type="matrix" values="0 0 0 0 0.405038 0 0 0 0 0.439531 0 0 0 0 0.634991 0 0 0 0.75 0"/>
<feBlend mode="normal" in2="effect1_innerShadow_125_70" result="effect2_innerShadow_125_70"/>
<feColorMatrix in="SourceAlpha" type="matrix" values="0 0 0 0 0 0 0 0 0 0 0 0 0 0 0 0 0 0 127 0" result="hardAlpha"/>
<feOffset dx="18" dy="2"/>
<feGaussianBlur stdDeviation="6.7"/>
<feComposite in2="hardAlpha" operator="arithmetic" k2="-1" k3="1"/>
<feColorMatrix type="matrix" values="0 0 0 0 0 0 0 0 0 0 0 0 0 0 0 0 0 0 0.25 0"/>
<feBlend mode="normal" in2="effect2_innerShadow_125_70" result="effect3_innerShadow_125_70"/>
</filter>
<filter id="filter1_iiii_125_70" x="324.904" y="0" width="703.096" height="858.901" filterUnits="userSpaceOnUse" color-interpolation-filters="sRGB">
<feFlood flood-opacity="0" result="BackgroundImageFix"/>
<feBlend mode="normal" in="SourceGraphic" in2="BackgroundImageFix" result="shape"/>
<feColorMatrix in="SourceAlpha" type="matrix" values="0 0 0 0 0 0 0 0 0 0 0 0 0 0 0 0 0 0 127 0" result="hardAlpha"/>
<feOffset dx="20" dy="35"/>
<feGaussianBlur stdDeviation="50"/>
<feComposite in2="hardAlpha" operator="arithmetic" k2="-1" k3="1"/>
<feColorMatrix type="matrix" values="0 0 0 0 0.210067 0 0 0 0 0.21652 0 0 0 0 0.40364 0 0 0 0.54 0"/>
<feBlend mode="normal" in2="shape" result="effect1_innerShadow_125_70"/>
<feColorMatrix in="SourceAlpha" type="matrix" values="0 0 0 0 0 0 0 0 0 0 0 0 0 0 0 0 0 0 127 0" result="hardAlpha"/>
<feOffset dx="15" dy="35"/>
<feGaussianBlur stdDeviation="25"/>
<feComposite in2="hardAlpha" operator="arithmetic" k2="-1" k3="1"/>
<feColorMatrix type="matrix" values="0 0 0 0 0.317589 0 0 0 0 0.322299 0 0 0 0 0.600192 0 0 0 0.93 0"/>
<feBlend mode="normal" in2="effect1_innerShadow_125_70" result="effect2_innerShadow_125_70"/>
<feColorMatrix in="SourceAlpha" type="matrix" values="0 0 0 0 0 0 0 0 0 0 0 0 0 0 0 0 0 0 127 0" result="hardAlpha"/>
<feOffset dx="10" dy="35"/>
<feGaussianBlur stdDeviation="10"/>
<feComposite in2="hardAlpha" operator="arithmetic" k2="-1" k3="1"/>
<feColorMatrix type="matrix" values="0 0 0 0 0 0 0 0 0 0 0 0 0 0 0 0 0 0 0.18 0"/>
<feBlend mode="normal" in2="effect2_innerShadow_125_70" result="effect3_innerShadow_125_70"/>
<feColorMatrix in="SourceAlpha" type="matrix" values="0 0 0 0 0 0 0 0 0 0 0 0 0 0 0 0 0 0 127 0" result="hardAlpha"/>
<feOffset dx="5" dy="35"/>
<feGaussianBlur stdDeviation="5.35"/>
<feComposite in2="hardAlpha" operator="arithmetic" k2="-1" k3="1"/>
<feColorMatrix type="matrix" values="0 0 0 0 0.310143 0 0 0 0 0.310114 0 0 0 0 0.310697 0 0 0 0.18 0"/>
<feBlend mode="normal" in2="effect3_innerShadow_125_70" result="effect4_innerShadow_125_70"/>
</filter>
<linearGradient id="paint0_linear_125_70" x1="234.211" y1="602.839" x2="706.388" y2="809.132" gradientUnits="userSpaceOnUse">
<stop stop-color="#5F67A0"/>
<stop offset="0.445714" stop-color="#5F67A0" stop-opacity="0.87"/>
<stop offset="0.583764" stop-color="#5F67A0" stop-opacity="0.83"/>
<stop offset="1" stop-color="#5F67A0" stop-opacity="0.8"/>
</linearGradient>
<linearGradient id="paint1_linear_125_70" x1="667.095" y1="49.5484" x2="667.095" y2="750.213" gradientUnits="userSpaceOnUse">
<stop offset="0.0264706" stop-color="#5F67A0"/>
<stop offset="0.137827" stop-color="#5F67A0" stop-opacity="0.9"/>
<stop offset="0.496394" stop-color="#5F67A0" stop-opacity="0.8"/>
<stop offset="1" stop-color="#5F67A0" stop-opacity="0.75"/>
</linearGradient>
</defs>
</svg>
